G04 #@! TF.FileFunction,Copper,L2,Bot,Signal*
%FSLAX46Y46*%
G04 Gerber Fmt 4.6, Leading zero omitted, Abs format (unit mm)*
G04 Created by KiCad (PCBNEW 4.0.1-stable) date 2017-05-24 4:48:35 PM*
%MOMM*%
G01*
G04 APERTURE LIST*
%ADD10C,0.100000*%
%ADD11C,1.900000*%
%ADD12R,1.600000X1.600000*%
%ADD13O,1.600000X1.600000*%
%ADD14R,1.700000X1.700000*%
%ADD15O,1.700000X1.700000*%
%ADD16C,1.500000*%
G04 APERTURE END LIST*
D10*
D11*
X139865100Y-114176400D03*
X142405100Y-114176400D03*
X144945100Y-114176400D03*
X165265100Y-104016400D03*
X165265100Y-106556400D03*
X165265100Y-109096400D03*
X165265100Y-114176400D03*
X165265100Y-111636400D03*
X134785100Y-101476400D03*
X137325100Y-101476400D03*
X139865100Y-101476400D03*
X142405100Y-101476400D03*
X144945100Y-101476400D03*
X147485100Y-101476400D03*
X150025100Y-101476400D03*
X152565100Y-101476400D03*
X155105100Y-101476400D03*
X157645100Y-101476400D03*
X160185100Y-101476400D03*
X162725100Y-101476400D03*
X165265100Y-101476400D03*
X165265100Y-116716400D03*
X162725100Y-116716400D03*
X160185100Y-116716400D03*
X157645100Y-116716400D03*
X155105100Y-116716400D03*
X152565100Y-116716400D03*
X150025100Y-116716400D03*
X147485100Y-116716400D03*
X144945100Y-116716400D03*
X142405100Y-116716400D03*
X139865100Y-116716400D03*
X137325100Y-116716400D03*
X134785100Y-116716400D03*
X132245100Y-116716400D03*
X132245100Y-101476400D03*
D12*
X174625000Y-104245000D03*
D13*
X189865000Y-111865000D03*
X177165000Y-104245000D03*
X187325000Y-111865000D03*
X179705000Y-104245000D03*
X184785000Y-111865000D03*
X182245000Y-104245000D03*
X182245000Y-111865000D03*
X184785000Y-104245000D03*
X179705000Y-111865000D03*
X187325000Y-104245000D03*
X177165000Y-111865000D03*
X189865000Y-104245000D03*
X174625000Y-111865000D03*
D14*
X174625000Y-99800000D03*
D15*
X177165000Y-99800000D03*
X179705000Y-99800000D03*
D16*
X182130000Y-116580000D03*
X184630000Y-116580000D03*
X180880000Y-118580000D03*
X183380000Y-118580000D03*
M02*
