G04 #@! TF.FileFunction,Copper,L1,Top,Signal*
%FSLAX46Y46*%
G04 Gerber Fmt 4.6, Leading zero omitted, Abs format (unit mm)*
G04 Created by KiCad (PCBNEW 4.0.6) date Tuesday, May 23, 2017 'AMt' 09:44:31 AM*
%MOMM*%
%LPD*%
G01*
G04 APERTURE LIST*
%ADD10C,0.100000*%
%ADD11C,1.900000*%
%ADD12R,1.600000X1.600000*%
%ADD13O,1.600000X1.600000*%
%ADD14R,1.700000X1.700000*%
%ADD15O,1.700000X1.700000*%
%ADD16C,1.500000*%
%ADD17C,0.250000*%
G04 APERTURE END LIST*
D10*
D11*
X139865100Y-99923600D03*
X142405100Y-99923600D03*
X144945100Y-99923600D03*
X165265100Y-110083600D03*
X165265100Y-107543600D03*
X165265100Y-105003600D03*
X165265100Y-99923600D03*
X165265100Y-102463600D03*
X134785100Y-112623600D03*
X137325100Y-112623600D03*
X139865100Y-112623600D03*
X142405100Y-112623600D03*
X144945100Y-112623600D03*
X147485100Y-112623600D03*
X150025100Y-112623600D03*
X152565100Y-112623600D03*
X155105100Y-112623600D03*
X157645100Y-112623600D03*
X160185100Y-112623600D03*
X162725100Y-112623600D03*
X165265100Y-112623600D03*
X165265100Y-97383600D03*
X162725100Y-97383600D03*
X160185100Y-97383600D03*
X157645100Y-97383600D03*
X155105100Y-97383600D03*
X152565100Y-97383600D03*
X150025100Y-97383600D03*
X147485100Y-97383600D03*
X144945100Y-97383600D03*
X142405100Y-97383600D03*
X139865100Y-97383600D03*
X137325100Y-97383600D03*
X134785100Y-97383600D03*
X132245100Y-97383600D03*
X132245100Y-112623600D03*
D12*
X174625000Y-109855000D03*
D13*
X189865000Y-102235000D03*
X177165000Y-109855000D03*
X187325000Y-102235000D03*
X179705000Y-109855000D03*
X184785000Y-102235000D03*
X182245000Y-109855000D03*
X182245000Y-102235000D03*
X184785000Y-109855000D03*
X179705000Y-102235000D03*
X187325000Y-109855000D03*
X177165000Y-102235000D03*
X189865000Y-109855000D03*
X174625000Y-102235000D03*
D14*
X174625000Y-114300000D03*
D15*
X177165000Y-114300000D03*
X179705000Y-114300000D03*
D16*
X182130000Y-97520000D03*
X184630000Y-97520000D03*
X180880000Y-95520000D03*
X183380000Y-95520000D03*
D17*
X182245000Y-109855000D02*
X177165000Y-104775000D01*
X177165000Y-104775000D02*
X170116500Y-104775000D01*
X166215099Y-100873599D02*
X165265100Y-99923600D01*
X170116500Y-104775000D02*
X166215099Y-100873599D01*
X174625000Y-102235000D02*
X174625000Y-95250000D01*
X174625000Y-95250000D02*
X173990000Y-94615000D01*
X174625000Y-102235000D02*
X177165000Y-102235000D01*
X140093700Y-94615000D02*
X137325100Y-97383600D01*
X173990000Y-94615000D02*
X140093700Y-94615000D01*
X132245100Y-112623600D02*
X132245100Y-115404900D01*
X167005000Y-115570000D02*
X174625000Y-109855000D01*
X132410200Y-115570000D02*
X167005000Y-115570000D01*
X132245100Y-115404900D02*
X132410200Y-115570000D01*
X188005000Y-98470000D02*
X185580000Y-98470000D01*
X185580000Y-98470000D02*
X184630000Y-97520000D01*
X189865000Y-100330000D02*
X188005000Y-98470000D01*
X189865000Y-102235000D02*
X189865000Y-100330000D01*
X191190001Y-100385001D02*
X186325000Y-95520000D01*
X186325000Y-95520000D02*
X183380000Y-95520000D01*
X190989378Y-104140000D02*
X191190001Y-103939377D01*
X191190001Y-103939377D02*
X191190001Y-100385001D01*
X187325000Y-104140000D02*
X190989378Y-104140000D01*
X187325000Y-102235000D02*
X187325000Y-104140000D01*
X187325000Y-109855000D02*
X187325000Y-108723630D01*
X187325000Y-108723630D02*
X192405000Y-103643630D01*
X192405000Y-103643630D02*
X192405000Y-100330000D01*
X192405000Y-100330000D02*
X185069999Y-92994999D01*
X185069999Y-92994999D02*
X181875001Y-92994999D01*
X181875001Y-92994999D02*
X180975000Y-93895000D01*
X180975000Y-93895000D02*
X180975000Y-95425000D01*
X180975000Y-95425000D02*
X180880000Y-95520000D01*
X177114990Y-93964990D02*
X177114990Y-97300010D01*
X177114990Y-97300010D02*
X177334980Y-97520000D01*
X177334980Y-97520000D02*
X182130000Y-97520000D01*
X189865000Y-109855000D02*
X182849980Y-116870020D01*
X182849980Y-116870020D02*
X131871716Y-116870020D01*
X131871716Y-116870020D02*
X130120089Y-115118393D01*
X130120089Y-115118393D02*
X130120089Y-97325609D01*
X130120089Y-97325609D02*
X133480708Y-93964990D01*
X133480708Y-93964990D02*
X177114990Y-93964990D01*
X161775101Y-111673601D02*
X162725100Y-112623600D01*
X175260000Y-114300000D02*
X174160000Y-114300000D01*
X174160000Y-114300000D02*
X172239990Y-116220010D01*
X172239990Y-116220010D02*
X132140958Y-116220010D01*
X132140958Y-116220010D02*
X130770099Y-114849151D01*
X130770099Y-114849151D02*
X130770099Y-111915599D01*
X130770099Y-111915599D02*
X131537099Y-111148599D01*
X131537099Y-111148599D02*
X161250099Y-111148599D01*
X161250099Y-111148599D02*
X161775101Y-111673601D01*
X177165000Y-109855000D02*
X177165000Y-113665000D01*
X177165000Y-113665000D02*
X177800000Y-114300000D01*
X179705000Y-109855000D02*
X179705000Y-113665000D01*
X179705000Y-113665000D02*
X180340000Y-114300000D01*
M02*
