G04 #@! TF.FileFunction,Legend,Top*
%FSLAX46Y46*%
G04 Gerber Fmt 4.6, Leading zero omitted, Abs format (unit mm)*
G04 Created by KiCad (PCBNEW 4.0.6) date Tuesday, May 23, 2017 'AMt' 09:44:31 AM*
%MOMM*%
%LPD*%
G01*
G04 APERTURE LIST*
%ADD10C,0.100000*%
%ADD11C,0.120000*%
%ADD12C,0.150000*%
%ADD13C,0.125000*%
G04 APERTURE END LIST*
D10*
D11*
X173235000Y-107045000D02*
X173235000Y-108815000D01*
X173235000Y-108815000D02*
X191255000Y-108815000D01*
X191255000Y-108815000D02*
X191255000Y-103275000D01*
X191255000Y-103275000D02*
X173235000Y-103275000D01*
X173235000Y-103275000D02*
X173235000Y-105045000D01*
X173235000Y-105045000D02*
G75*
G02X173235000Y-107045000I0J-1000000D01*
G01*
X175895000Y-115630000D02*
X181035000Y-115630000D01*
X181035000Y-115630000D02*
X181035000Y-112970000D01*
X181035000Y-112970000D02*
X175895000Y-112970000D01*
X175895000Y-112970000D02*
X175895000Y-115630000D01*
X174625000Y-115630000D02*
X173295000Y-115630000D01*
X173295000Y-115630000D02*
X173295000Y-114300000D01*
D12*
X179880000Y-94520000D02*
X179880000Y-98520000D01*
X185880000Y-94520000D02*
X179880000Y-94520000D01*
X185880000Y-98520000D02*
X185880000Y-94520000D01*
X179880000Y-98520000D02*
X185880000Y-98520000D01*
X130534671Y-105638457D02*
X131748957Y-105638457D01*
X131891814Y-105567029D01*
X131963243Y-105495600D01*
X132034671Y-105352743D01*
X132034671Y-105067029D01*
X131963243Y-104924171D01*
X131891814Y-104852743D01*
X131748957Y-104781314D01*
X130534671Y-104781314D01*
X132034671Y-103281314D02*
X132034671Y-104138457D01*
X132034671Y-103709885D02*
X130534671Y-103709885D01*
X130748957Y-103852742D01*
X130891814Y-103995600D01*
X130963243Y-104138457D01*
D13*
X161594957Y-109772505D02*
X161861624Y-110572505D01*
X162128291Y-109772505D01*
X162661624Y-110153457D02*
X162775910Y-110191552D01*
X162814005Y-110229648D01*
X162852100Y-110305838D01*
X162852100Y-110420124D01*
X162814005Y-110496314D01*
X162775910Y-110534410D01*
X162699719Y-110572505D01*
X162394957Y-110572505D01*
X162394957Y-109772505D01*
X162661624Y-109772505D01*
X162737814Y-109810600D01*
X162775910Y-109848695D01*
X162814005Y-109924886D01*
X162814005Y-110001076D01*
X162775910Y-110077267D01*
X162737814Y-110115362D01*
X162661624Y-110153457D01*
X162394957Y-110153457D01*
X163537814Y-110572505D02*
X163537814Y-110153457D01*
X163499719Y-110077267D01*
X163423529Y-110039171D01*
X163271148Y-110039171D01*
X163194957Y-110077267D01*
X163537814Y-110534410D02*
X163461624Y-110572505D01*
X163271148Y-110572505D01*
X163194957Y-110534410D01*
X163156862Y-110458219D01*
X163156862Y-110382029D01*
X163194957Y-110305838D01*
X163271148Y-110267743D01*
X163461624Y-110267743D01*
X163537814Y-110229648D01*
X163804481Y-110039171D02*
X164109243Y-110039171D01*
X163918767Y-109772505D02*
X163918767Y-110458219D01*
X163956862Y-110534410D01*
X164033053Y-110572505D01*
X164109243Y-110572505D01*
X161798148Y-107105505D02*
X162293386Y-107105505D01*
X162026719Y-107410267D01*
X162141005Y-107410267D01*
X162217195Y-107448362D01*
X162255291Y-107486457D01*
X162293386Y-107562648D01*
X162293386Y-107753124D01*
X162255291Y-107829314D01*
X162217195Y-107867410D01*
X162141005Y-107905505D01*
X161912433Y-107905505D01*
X161836243Y-107867410D01*
X161798148Y-107829314D01*
X162636243Y-107829314D02*
X162674338Y-107867410D01*
X162636243Y-107905505D01*
X162598148Y-107867410D01*
X162636243Y-107829314D01*
X162636243Y-107905505D01*
X162941005Y-107105505D02*
X163436243Y-107105505D01*
X163169576Y-107410267D01*
X163283862Y-107410267D01*
X163360052Y-107448362D01*
X163398148Y-107486457D01*
X163436243Y-107562648D01*
X163436243Y-107753124D01*
X163398148Y-107829314D01*
X163360052Y-107867410D01*
X163283862Y-107905505D01*
X163055290Y-107905505D01*
X162979100Y-107867410D01*
X162941005Y-107829314D01*
X163664814Y-107105505D02*
X163931481Y-107905505D01*
X164198148Y-107105505D01*
X163950624Y-104603600D02*
X163874433Y-104565505D01*
X163760148Y-104565505D01*
X163645862Y-104603600D01*
X163569671Y-104679790D01*
X163531576Y-104755981D01*
X163493481Y-104908362D01*
X163493481Y-105022648D01*
X163531576Y-105175029D01*
X163569671Y-105251219D01*
X163645862Y-105327410D01*
X163760148Y-105365505D01*
X163836338Y-105365505D01*
X163950624Y-105327410D01*
X163988719Y-105289314D01*
X163988719Y-105022648D01*
X163836338Y-105022648D01*
X161671147Y-102825505D02*
X161671147Y-102025505D01*
X161975909Y-102025505D01*
X162052100Y-102063600D01*
X162090195Y-102101695D01*
X162128290Y-102177886D01*
X162128290Y-102292171D01*
X162090195Y-102368362D01*
X162052100Y-102406457D01*
X161975909Y-102444552D01*
X161671147Y-102444552D01*
X162471147Y-102825505D02*
X162471147Y-102292171D01*
X162471147Y-102444552D02*
X162509242Y-102368362D01*
X162547338Y-102330267D01*
X162623528Y-102292171D01*
X162699719Y-102292171D01*
X163080671Y-102825505D02*
X163004480Y-102787410D01*
X162966385Y-102749314D01*
X162928290Y-102673124D01*
X162928290Y-102444552D01*
X162966385Y-102368362D01*
X163004480Y-102330267D01*
X163080671Y-102292171D01*
X163194957Y-102292171D01*
X163271147Y-102330267D01*
X163309242Y-102368362D01*
X163347338Y-102444552D01*
X163347338Y-102673124D01*
X163309242Y-102749314D01*
X163271147Y-102787410D01*
X163194957Y-102825505D01*
X163080671Y-102825505D01*
X164033052Y-102292171D02*
X164033052Y-102939790D01*
X163994957Y-103015981D01*
X163956862Y-103054076D01*
X163880671Y-103092171D01*
X163766386Y-103092171D01*
X163690195Y-103054076D01*
X164033052Y-102787410D02*
X163956862Y-102825505D01*
X163804481Y-102825505D01*
X163728290Y-102787410D01*
X163690195Y-102749314D01*
X163652100Y-102673124D01*
X163652100Y-102444552D01*
X163690195Y-102368362D01*
X163728290Y-102330267D01*
X163804481Y-102292171D01*
X163956862Y-102292171D01*
X164033052Y-102330267D01*
X162153719Y-100056933D02*
X162534671Y-100056933D01*
X162077528Y-100285505D02*
X162344195Y-99485505D01*
X162610862Y-100285505D01*
X163296576Y-100285505D02*
X162839433Y-100285505D01*
X163068004Y-100285505D02*
X163068004Y-99485505D01*
X162991814Y-99599790D01*
X162915623Y-99675981D01*
X162839433Y-99714076D01*
X163982290Y-99752171D02*
X163982290Y-100285505D01*
X163791814Y-99447410D02*
X163601338Y-100018838D01*
X164096576Y-100018838D01*
X131845100Y-111017076D02*
X131807005Y-111093267D01*
X131807005Y-111207552D01*
X131845100Y-111321838D01*
X131921290Y-111398029D01*
X131997481Y-111436124D01*
X132149862Y-111474219D01*
X132264148Y-111474219D01*
X132416529Y-111436124D01*
X132492719Y-111398029D01*
X132568910Y-111321838D01*
X132607005Y-111207552D01*
X132607005Y-111131362D01*
X132568910Y-111017076D01*
X132530814Y-110978981D01*
X132264148Y-110978981D01*
X132264148Y-111131362D01*
X137014005Y-100850552D02*
X137014005Y-100355314D01*
X137318767Y-100621981D01*
X137318767Y-100507695D01*
X137356862Y-100431505D01*
X137394957Y-100393409D01*
X137471148Y-100355314D01*
X137661624Y-100355314D01*
X137737814Y-100393409D01*
X137775910Y-100431505D01*
X137814005Y-100507695D01*
X137814005Y-100736267D01*
X137775910Y-100812457D01*
X137737814Y-100850552D01*
X137737814Y-100012457D02*
X137775910Y-99974362D01*
X137814005Y-100012457D01*
X137775910Y-100050552D01*
X137737814Y-100012457D01*
X137814005Y-100012457D01*
X137014005Y-99707695D02*
X137014005Y-99212457D01*
X137318767Y-99479124D01*
X137318767Y-99364838D01*
X137356862Y-99288648D01*
X137394957Y-99250552D01*
X137471148Y-99212457D01*
X137661624Y-99212457D01*
X137737814Y-99250552D01*
X137775910Y-99288648D01*
X137814005Y-99364838D01*
X137814005Y-99593410D01*
X137775910Y-99669600D01*
X137737814Y-99707695D01*
X137014005Y-98983886D02*
X137814005Y-98717219D01*
X137014005Y-98450552D01*
X134918433Y-101333123D02*
X134918433Y-100952171D01*
X135147005Y-101409314D02*
X134347005Y-101142647D01*
X135147005Y-100875980D01*
X134385100Y-100190266D02*
X134347005Y-100266457D01*
X134347005Y-100380742D01*
X134385100Y-100495028D01*
X134461290Y-100571219D01*
X134537481Y-100609314D01*
X134689862Y-100647409D01*
X134804148Y-100647409D01*
X134956529Y-100609314D01*
X135032719Y-100571219D01*
X135108910Y-100495028D01*
X135147005Y-100380742D01*
X135147005Y-100304552D01*
X135108910Y-100190266D01*
X135070814Y-100152171D01*
X134804148Y-100152171D01*
X134804148Y-100304552D01*
X135147005Y-99809314D02*
X134347005Y-99809314D01*
X135147005Y-99352171D01*
X134347005Y-99352171D01*
X135147005Y-98971219D02*
X134347005Y-98971219D01*
X134347005Y-98780743D01*
X134385100Y-98666457D01*
X134461290Y-98590266D01*
X134537481Y-98552171D01*
X134689862Y-98514076D01*
X134804148Y-98514076D01*
X134956529Y-98552171D01*
X135032719Y-98590266D01*
X135108910Y-98666457D01*
X135147005Y-98780743D01*
X135147005Y-98971219D01*
X131680005Y-100107648D02*
X132480005Y-99840981D01*
X131680005Y-99574314D01*
X132480005Y-99307648D02*
X131946671Y-99307648D01*
X131680005Y-99307648D02*
X131718100Y-99345743D01*
X131756195Y-99307648D01*
X131718100Y-99269553D01*
X131680005Y-99307648D01*
X131756195Y-99307648D01*
X131946671Y-98926696D02*
X132480005Y-98926696D01*
X132022862Y-98926696D02*
X131984767Y-98888601D01*
X131946671Y-98812410D01*
X131946671Y-98698124D01*
X131984767Y-98621934D01*
X132060957Y-98583839D01*
X132480005Y-98583839D01*
X145078433Y-102907981D02*
X145078433Y-102527029D01*
X145307005Y-102984172D02*
X144507005Y-102717505D01*
X145307005Y-102450838D01*
X145307005Y-101765124D02*
X145307005Y-102222267D01*
X145307005Y-101993696D02*
X144507005Y-101993696D01*
X144621290Y-102069886D01*
X144697481Y-102146077D01*
X144735576Y-102222267D01*
X145307005Y-101003219D02*
X145307005Y-101460362D01*
X145307005Y-101231791D02*
X144507005Y-101231791D01*
X144621290Y-101307981D01*
X144697481Y-101384172D01*
X144735576Y-101460362D01*
X142538433Y-102907981D02*
X142538433Y-102527029D01*
X142767005Y-102984172D02*
X141967005Y-102717505D01*
X142767005Y-102450838D01*
X142767005Y-101765124D02*
X142767005Y-102222267D01*
X142767005Y-101993696D02*
X141967005Y-101993696D01*
X142081290Y-102069886D01*
X142157481Y-102146077D01*
X142195576Y-102222267D01*
X141967005Y-101269886D02*
X141967005Y-101193695D01*
X142005100Y-101117505D01*
X142043195Y-101079410D01*
X142119386Y-101041314D01*
X142271767Y-101003219D01*
X142462243Y-101003219D01*
X142614624Y-101041314D01*
X142690814Y-101079410D01*
X142728910Y-101117505D01*
X142767005Y-101193695D01*
X142767005Y-101269886D01*
X142728910Y-101346076D01*
X142690814Y-101384172D01*
X142614624Y-101422267D01*
X142462243Y-101460362D01*
X142271767Y-101460362D01*
X142119386Y-101422267D01*
X142043195Y-101384172D01*
X142005100Y-101346076D01*
X141967005Y-101269886D01*
X139998433Y-103758838D02*
X139998433Y-103377886D01*
X140227005Y-103835029D02*
X139427005Y-103568362D01*
X140227005Y-103301695D01*
X140227005Y-102577886D02*
X139846052Y-102844553D01*
X140227005Y-103035029D02*
X139427005Y-103035029D01*
X139427005Y-102730267D01*
X139465100Y-102654076D01*
X139503195Y-102615981D01*
X139579386Y-102577886D01*
X139693671Y-102577886D01*
X139769862Y-102615981D01*
X139807957Y-102654076D01*
X139846052Y-102730267D01*
X139846052Y-103035029D01*
X139807957Y-102235029D02*
X139807957Y-101968362D01*
X140227005Y-101854076D02*
X140227005Y-102235029D01*
X139427005Y-102235029D01*
X139427005Y-101854076D01*
X139807957Y-101244552D02*
X139807957Y-101511219D01*
X140227005Y-101511219D02*
X139427005Y-101511219D01*
X139427005Y-101130266D01*
D12*
X171687381Y-106806905D02*
X172496905Y-106806905D01*
X172592143Y-106759286D01*
X172639762Y-106711667D01*
X172687381Y-106616429D01*
X172687381Y-106425952D01*
X172639762Y-106330714D01*
X172592143Y-106283095D01*
X172496905Y-106235476D01*
X171687381Y-106235476D01*
X171782619Y-105806905D02*
X171735000Y-105759286D01*
X171687381Y-105664048D01*
X171687381Y-105425952D01*
X171735000Y-105330714D01*
X171782619Y-105283095D01*
X171877857Y-105235476D01*
X171973095Y-105235476D01*
X172115952Y-105283095D01*
X172687381Y-105854524D01*
X172687381Y-105235476D01*
X171747381Y-114633333D02*
X172461667Y-114633333D01*
X172604524Y-114680953D01*
X172699762Y-114776191D01*
X172747381Y-114919048D01*
X172747381Y-115014286D01*
X172747381Y-113633333D02*
X172747381Y-114204762D01*
X172747381Y-113919048D02*
X171747381Y-113919048D01*
X171890238Y-114014286D01*
X171985476Y-114109524D01*
X172033095Y-114204762D01*
X178732381Y-97281905D02*
X179541905Y-97281905D01*
X179637143Y-97234286D01*
X179684762Y-97186667D01*
X179732381Y-97091429D01*
X179732381Y-96900952D01*
X179684762Y-96805714D01*
X179637143Y-96758095D01*
X179541905Y-96710476D01*
X178732381Y-96710476D01*
X178732381Y-96329524D02*
X178732381Y-95710476D01*
X179113333Y-96043810D01*
X179113333Y-95900952D01*
X179160952Y-95805714D01*
X179208571Y-95758095D01*
X179303810Y-95710476D01*
X179541905Y-95710476D01*
X179637143Y-95758095D01*
X179684762Y-95805714D01*
X179732381Y-95900952D01*
X179732381Y-96186667D01*
X179684762Y-96281905D01*
X179637143Y-96329524D01*
M02*
