M48
;DRILL file {KiCad 4.0.1-stable} date 2017-05-24 4:48:38 PM
;FORMAT={2:4/ absolute / inch / suppress leading zeros}
FMAT,2
INCH,TZ
T1C0.031
T2C0.039
%
G90
G05
M72
T1
X68750Y-41041
X68750Y-44041
X69750Y-41041
X69750Y-44041
X70750Y-41041
X70750Y-44041
X71213Y-46685
X71705Y-45898
X71750Y-41041
X71750Y-44041
X72197Y-46685
X72689Y-45898
X72750Y-41041
X72750Y-44041
X73750Y-41041
X73750Y-44041
X74750Y-41041
X74750Y-44041
T2
X52065Y-39951
X52065Y-45951
X53065Y-39951
X53065Y-45951
X54065Y-39951
X54065Y-45951
X55065Y-39951
X55065Y-44951
X55065Y-45951
X56065Y-39951
X56065Y-44951
X56065Y-45951
X57065Y-39951
X57065Y-44951
X57065Y-45951
X58065Y-39951
X58065Y-45951
X59065Y-39951
X59065Y-45951
X60065Y-39951
X60065Y-45951
X61065Y-39951
X61065Y-45951
X62065Y-39951
X62065Y-45951
X63065Y-39951
X63065Y-45951
X64065Y-39951
X64065Y-45951
X65065Y-39951
X65065Y-40951
X65065Y-41951
X65065Y-42951
X65065Y-43951
X65065Y-44951
X65065Y-45951
X68750Y-39291
X69750Y-39291
X70750Y-39291
T0
M30
