M48
;DRILL file {KiCad 4.0.6} date Tuesday, May 23, 2017 'AMt' 09:44:50 AM
;FORMAT={-:-/ absolute / metric / decimal}
FMAT,2
METRIC,TZ
T1C0.800
T2C1.000
%
G90
G05
M71
T1
X174.625Y-102.235
X174.625Y-109.855
X177.165Y-102.235
X177.165Y-109.855
X179.705Y-102.235
X179.705Y-109.855
X180.88Y-95.52
X182.13Y-97.52
X182.245Y-102.235
X182.245Y-109.855
X183.38Y-95.52
X184.63Y-97.52
X184.785Y-102.235
X184.785Y-109.855
X187.325Y-102.235
X187.325Y-109.855
X189.865Y-102.235
X189.865Y-109.855
T2
X132.245Y-97.384
X132.245Y-112.624
X134.785Y-97.384
X134.785Y-112.624
X137.325Y-97.384
X137.325Y-112.624
X139.865Y-97.384
X139.865Y-99.924
X139.865Y-112.624
X142.405Y-97.384
X142.405Y-99.924
X142.405Y-112.624
X144.945Y-97.384
X144.945Y-99.924
X144.945Y-112.624
X147.485Y-97.384
X147.485Y-112.624
X150.025Y-97.384
X150.025Y-112.624
X152.565Y-97.384
X152.565Y-112.624
X155.105Y-97.384
X155.105Y-112.624
X157.645Y-97.384
X157.645Y-112.624
X160.185Y-97.384
X160.185Y-112.624
X162.725Y-97.384
X162.725Y-112.624
X165.265Y-97.384
X165.265Y-99.924
X165.265Y-102.464
X165.265Y-105.004
X165.265Y-107.544
X165.265Y-110.084
X165.265Y-112.624
X174.625Y-114.3
X177.165Y-114.3
X179.705Y-114.3
T0
M30
