G04 #@! TF.FileFunction,Copper,L2,Bot,Signal*
%FSLAX46Y46*%
G04 Gerber Fmt 4.6, Leading zero omitted, Abs format (unit mm)*
G04 Created by KiCad (PCBNEW 4.0.6) date Tuesday, May 23, 2017 'AMt' 09:44:31 AM*
%MOMM*%
%LPD*%
G01*
G04 APERTURE LIST*
%ADD10C,0.100000*%
%ADD11C,1.900000*%
%ADD12R,1.600000X1.600000*%
%ADD13O,1.600000X1.600000*%
%ADD14R,1.700000X1.700000*%
%ADD15O,1.700000X1.700000*%
%ADD16C,1.500000*%
G04 APERTURE END LIST*
D10*
D11*
X139865100Y-99923600D03*
X142405100Y-99923600D03*
X144945100Y-99923600D03*
X165265100Y-110083600D03*
X165265100Y-107543600D03*
X165265100Y-105003600D03*
X165265100Y-99923600D03*
X165265100Y-102463600D03*
X134785100Y-112623600D03*
X137325100Y-112623600D03*
X139865100Y-112623600D03*
X142405100Y-112623600D03*
X144945100Y-112623600D03*
X147485100Y-112623600D03*
X150025100Y-112623600D03*
X152565100Y-112623600D03*
X155105100Y-112623600D03*
X157645100Y-112623600D03*
X160185100Y-112623600D03*
X162725100Y-112623600D03*
X165265100Y-112623600D03*
X165265100Y-97383600D03*
X162725100Y-97383600D03*
X160185100Y-97383600D03*
X157645100Y-97383600D03*
X155105100Y-97383600D03*
X152565100Y-97383600D03*
X150025100Y-97383600D03*
X147485100Y-97383600D03*
X144945100Y-97383600D03*
X142405100Y-97383600D03*
X139865100Y-97383600D03*
X137325100Y-97383600D03*
X134785100Y-97383600D03*
X132245100Y-97383600D03*
X132245100Y-112623600D03*
D12*
X174625000Y-109855000D03*
D13*
X189865000Y-102235000D03*
X177165000Y-109855000D03*
X187325000Y-102235000D03*
X179705000Y-109855000D03*
X184785000Y-102235000D03*
X182245000Y-109855000D03*
X182245000Y-102235000D03*
X184785000Y-109855000D03*
X179705000Y-102235000D03*
X187325000Y-109855000D03*
X177165000Y-102235000D03*
X189865000Y-109855000D03*
X174625000Y-102235000D03*
D14*
X174625000Y-114300000D03*
D15*
X177165000Y-114300000D03*
X179705000Y-114300000D03*
D16*
X182130000Y-97520000D03*
X184630000Y-97520000D03*
X180880000Y-95520000D03*
X183380000Y-95520000D03*
M02*
